<svg width="41" height="40" viewBox="0 0 41 40" fill="none" xmlns="http://www.w3.org/2000/svg">
<path d="M18.7588 6.4993C18.7588 6.4993 25.7394 4.48502 29.8571 10.3133L37.3188 6.10822C37.3188 6.10822 31.8699 -2.41565 18.7588 0.675147V6.4993Z" fill="#00C853"/>
<path d="M16.6739 7.13858L15.4791 1.73914C15.4791 1.73914 9.09995 3.92582 4.30859 10.3891L9.61317 12.6599C9.61317 12.6557 11.9186 8.97202 16.6739 7.13858Z" fill="#FF9100"/>
<path d="M8.49464 14.5397C8.49464 14.5397 7.54439 16.2891 7.27174 18.7785L0.170898 20.1452C0.170898 20.1452 0.443544 17.2436 2.44028 13.3496L8.49464 14.5397Z" fill="#F44336"/>
<path d="M7.29153 20.8222C7.29153 20.8222 7.67244 26.6547 13.6306 28.2779C18.7587 29.6741 22.9407 27.2477 22.9407 27.2477L18.2936 16.9366C18.2936 16.9366 18.1293 16.6506 18.5542 16.3016C18.9752 15.9526 19.2238 16.1881 19.2238 16.1881L28.5579 22.622C28.5579 22.622 32.6757 17.58 30.7231 12.1175L39.0348 9.03088C39.0348 9.03088 43.4332 17.6809 35.9755 27.7397L39.9329 30.4688C39.9329 30.4688 40.386 30.7884 39.8688 31.3603L29.444 39.838C29.444 39.838 28.9308 40.2627 28.57 39.737L26.6775 35.5319C26.6775 35.5319 18.5703 40.1239 10.046 37.0668C1.20109 33.8919 -0.0619079 25.5236 0.00224423 23.5345L7.29153 20.8222Z" fill="black"/>
</svg>
